<?xml version="1.0" encoding="UTF-8"?>
<svg width="680.66" height="1920" version="1.1" viewBox="0 0 680.656 1920" xmlns="http://www.w3.org/2000/svg">
 <g transform="translate(0 867.64)">
  <path d="m338.35-867.64c-22.234 1.0676-21.086 21.774-22.463 40.311-11.192-0.34669-19.16 4.4624-22.154 17.231-34.255 7.4074-15.452 38.074 1.2305 40.926 12.683 1.3833 0.16078 13.136 4.6152 16.924 2.9856 2.5388 11.693 1.2305 11.693 1.2305l-5.2324 37.848c-7.2062-0.55505-13.525 4.9311-13.846 10.77-0.27479 4.9973 7.4963 10.456 10.77 10.461l0.30664 4c-4.4394 1.4964-9.5596 2.0502-14.77-0.30664-3.5899-4.585-7.1797-2.6924-10.77 0h-8c-11.91-39.59-65.948-11.289-68.311 11.691-2.2661 22.035 50.287 34.151 61.85 24.309 2.9303-8.6901 6.9159-13.152 12.307-12 4.038 4.3886 8.6335 5.4345 14.309 0 5.1627-1.0372 9.2975-0.7039 12 1.5391l-0.76758 11.385c-8.6516-1.021-13.343 4.8838-13.539 10.615-0.19159 5.5888 8.5584 11.26 12.461 11.232l-2.6152 29.539c-4.268 5.5131-10.86 0.56236-16.615-0.61525-4.2206-3.1742-5.8519 1.4237-8.6172 2.6152-2.2052 3.6737-4.41 0.69012-6.6152-0.1543-34.239-21.721-75.187-5.8341-67.696 14.309 2.6134 35.104 48.96 19.401 74.928 6.7696 6.293 6.9512 10.272 2.34 15.076 1.8457 5.3146-2.137 10.425-2.4349 14.924 2.7695-5.2415 146.36-9.4804 293.01-14.961 439.25-232.76 38.403-251.35 181.44-200.32 358.48 3.1234 12.308 0.75089 24.618-4.3086 36.926-4.2741 17.322 6.5269 17.684 14.77 20.924 119.12 43.041 67.932 222.36-6.7696 250.47-16.489 6.2057-55.96-25.415-47.385 45.539 4.0332 11.061-1.4312 30.433-10.463 52.926-112.66 316.37 82.058 412.48 254.74 418.74v0.4883c16.675 1.1179 34.089 1.3299 52.231 0.5703 18.165 0.7598 35.6 0.5465 52.295-0.5762v-0.4863c172.66-6.287 367.29-102.42 254.65-418.73-9.0317-22.493-14.494-41.865-10.461-52.926 8.5752-70.954-30.898-39.334-47.387-45.539-74.702-28.114-125.89-207.43-6.7696-250.47 8.2426-3.2403 19.044-3.6022 14.77-20.924-5.0595-12.308-7.432-24.618-4.3086-36.926 51.031-177.04 32.45-320.07-200.32-358.48l-16.617-442.79c11.113-4.3213 12.845-10.282 12.002-17.231-0.54276-4.4732-6.3496-8.4693-10.154-8.9238l-2.1543-25.848h7.3848c5.7779 4.1434 9.785 1.9117 13.539-1.2305 2.9798-0.44798 6.0024-0.99211 7.3848 2.1543 12.46 34.689 74.729 22.126 68.617-13.539-7.768-45.33-67.817-19.101-68.309-9.8457-2.1787 2.2885-4.8126 1.3878-7.3848 0.92188-4.3821-2.1474-8.6746-4.9273-13.848-1.5371-2.5708 1.4726-5.3276 1.0902-8.3086-1.5391l-1.5371-13.539c3.4787 0.61388 7.1809-11.331-1.2324-19.385-0.74379-0.71202 1.4707-2.7168 1.4707-2.7168 3.9304-4.5289 16.902-5.0006 18.838-1.2832 25.595 49.143 66.73 6.8514 67.08-8.3086 1.406-60.764-65.985-41.379-64.617-15.693 0.26112 4.9033-5.4288 1.4582-7.6934 2.7695-15.049-0.10262-12.682 0.9206-19.893-2.1875l-4.7227-37.815c2.6415-3.3559 11.322 2.0149 14.77-1.5371 3.8681-3.9853-8.3988-14.477 1.2305-16.617 18.526-2.5808 39.07-35.008 1.8457-40.617 1.5326-12.893-6.6314-17.3-18.154-18.77 1.0649-25.347-6.1983-39.469-24-39.387z" fill-rule="evenodd"/>
 </g>
</svg>
